<?xml version="1.0" encoding="utf-8" ?>
<svg baseProfile="full" height="700" version="1.1" width="700" xmlns="http://www.w3.org/2000/svg" xmlns:ev="http://www.w3.org/2001/xml-events" xmlns:xlink="http://www.w3.org/1999/xlink"><defs /><g id="lines" stroke="black"><line x1="31.8181818182" x2="161.452414773" y1="680.0" y2="20.0" /><line x1="291.086647727" x2="161.452414773" y1="323.401519897" y2="20.0" /><line x1="94.9573863636" x2="291.086647727" y1="598.022263755" y2="323.401519897" /><line x1="63.6363636364" x2="94.9573863636" y1="680.0" y2="598.022263755" /><line x1="126.278409091" x2="94.9573863636" y1="641.424872509" y2="598.022263755" /><line x1="95.4545454545" x2="126.278409091" y1="680.0" y2="641.424872509" /><line x1="157.102272727" x2="126.278409091" y1="654.848545021" y2="641.424872509" /><line x1="127.272727273" x2="157.102272727" y1="680.0" y2="654.848545021" /><line x1="186.931818182" x2="157.102272727" y1="660.995610773" y2="654.848545021" /><line x1="159.090909091" x2="186.931818182" y1="680.0" y2="660.995610773" /><line x1="214.772727273" x2="186.931818182" y1="673.462830574" y2="660.995610773" /><line x1="190.909090909" x2="214.772727273" y1="680.0" y2="673.462830574" /><line x1="238.636363636" x2="214.772727273" y1="677.178487227" y2="673.462830574" /><line x1="222.727272727" x2="238.636363636" y1="680.0" y2="677.178487227" /><line x1="254.545454545" x2="238.636363636" y1="680.0" y2="677.178487227" /><line x1="487.215909091" x2="291.086647727" y1="420.023929947" y2="323.401519897" /><line x1="377.840909091" x2="487.215909091" y1="679.985866641" y2="420.023929947" /><line x1="310.227272727" x2="377.840909091" y1="679.992568245" y2="679.985866641" /><line x1="286.363636364" x2="310.227272727" y1="680.0" y2="679.992568245" /><line x1="334.090909091" x2="310.227272727" y1="679.994769563" y2="679.992568245" /><line x1="318.181818182" x2="334.090909091" y1="680.0" y2="679.994769563" /><line x1="350.0" x2="334.090909091" y1="680.0" y2="679.994769563" /><line x1="445.454545455" x2="377.840909091" y1="679.99031134" y2="679.985866641" /><line x1="397.727272727" x2="445.454545455" y1="679.996851737" y2="679.99031134" /><line x1="381.818181818" x2="397.727272727" y1="680.0" y2="679.996851737" /><line x1="413.636363636" x2="397.727272727" y1="680.0" y2="679.996851737" /><line x1="493.181818182" x2="445.454545455" y1="679.996834635" y2="679.99031134" /><line x1="461.363636364" x2="493.181818182" y1="679.999530195" y2="679.996834635" /><line x1="445.454545455" x2="461.363636364" y1="680.0" y2="679.999530195" /><line x1="477.272727273" x2="461.363636364" y1="680.0" y2="679.999530195" /><line x1="525.0" x2="493.181818182" y1="679.997853138" y2="679.996834635" /><line x1="509.090909091" x2="525.0" y1="680.0" y2="679.997853138" /><line x1="540.909090909" x2="525.0" y1="680.0" y2="679.997853138" /><line x1="596.590909091" x2="487.215909091" y1="500.210188287" y2="420.023929947" /><line x1="572.727272727" x2="596.590909091" y1="680.0" y2="500.210188287" /><line x1="620.454545455" x2="596.590909091" y1="640.049434719" y2="500.210188287" /><line x1="604.545454545" x2="620.454545455" y1="680.0" y2="640.049434719" /><line x1="636.363636364" x2="620.454545455" y1="680.0" y2="640.049434719" /></g><g font-size="14"><text dx="-20" x="161.452414773" y="20.0">38</text><text dx="5" x="161.452414773" y="20.0">t = 3706981.84</text><text dx="-4" dy="20" x="31.8181818182" y="680.0">15</text><text dx="-20" x="291.086647727" y="323.401519897">37</text><text dx="5" x="291.086647727" y="323.401519897">t = 2002884.98</text><text dx="-20" x="94.9573863636" y="598.022263755">34</text><text dx="5" x="94.9573863636" y="598.022263755">t = 460439.36</text><text dx="-4" dy="20" x="63.6363636364" y="680.0">4</text><text dx="-20" x="126.278409091" y="641.424872509">32</text><text dx="5" x="126.278409091" y="641.424872509">t = 216662.57</text><text dx="-4" dy="20" x="95.4545454545" y="680.0">12</text><text dx="-20" x="157.102272727" y="654.848545021">31</text><text dx="5" x="157.102272727" y="654.848545021">t = 141266.65</text><text dx="-4" dy="20" x="127.272727273" y="680.0">10</text><text dx="-20" x="186.931818182" y="660.995610773">30</text><text dx="5" x="186.931818182" y="660.995610773">t = 106740.80</text><text dx="-4" dy="20" x="159.090909091" y="680.0">11</text><text dx="-20" x="214.772727273" y="673.462830574">29</text><text dx="5" x="214.772727273" y="673.462830574">t = 36716.92</text><text dx="-4" dy="20" x="190.909090909" y="680.0">14</text><text dx="-20" x="238.636363636" y="677.178487227">28</text><text dx="5" x="238.636363636" y="677.178487227">t = 15847.42</text><text dx="-4" dy="20" x="222.727272727" y="680.0">16</text><text dx="-4" dy="20" x="254.545454545" y="680.0">19</text><text dx="-20" x="487.215909091" y="420.023929947">36</text><text dx="5" x="487.215909091" y="420.023929947">t = 1460191.77</text><text dx="-20" x="377.840909091" y="679.985866641">27</text><text dx="5" x="377.840909091" y="679.985866641">t = 79.38</text><text dx="-20" x="310.227272727" y="679.992568245">25</text><text dx="5" x="310.227272727" y="679.992568245">t = 41.74</text><text dx="-4" dy="20" x="286.363636364" y="680.0">2</text><text dx="-20" x="334.090909091" y="679.994769563">24</text><text dx="5" x="334.090909091" y="679.994769563">t = 29.38</text><text dx="-4" dy="20" x="318.181818182" y="680.0">0</text><text dx="-4" dy="20" x="350.0" y="680.0">8</text><text dx="-20" x="445.454545455" y="679.99031134">26</text><text dx="5" x="445.454545455" y="679.99031134">t = 54.42</text><text dx="-20" x="397.727272727" y="679.996851737">22</text><text dx="5" x="397.727272727" y="679.996851737">t = 17.68</text><text dx="-4" dy="20" x="381.818181818" y="680.0">7</text><text dx="-4" dy="20" x="413.636363636" y="680.0">9</text><text dx="-20" x="493.181818182" y="679.996834635">23</text><text dx="5" x="493.181818182" y="679.996834635">t = 17.78</text><text dx="-20" x="461.363636364" y="679.999530195">20</text><text dx="5" x="461.363636364" y="679.999530195">t = 2.64</text><text dx="-4" dy="20" x="445.454545455" y="680.0">3</text><text dx="-4" dy="20" x="477.272727273" y="680.0">5</text><text dx="-20" x="525.0" y="679.997853138">21</text><text dx="5" x="525.0" y="679.997853138">t = 12.06</text><text dx="-4" dy="20" x="509.090909091" y="680.0">1</text><text dx="-4" dy="20" x="540.909090909" y="680.0">6</text><text dx="-20" x="596.590909091" y="500.210188287">35</text><text dx="5" x="596.590909091" y="500.210188287">t = 1009814.50</text><text dx="-4" dy="20" x="572.727272727" y="680.0">18</text><text dx="-20" x="620.454545455" y="640.049434719">33</text><text dx="5" x="620.454545455" y="640.049434719">t = 224387.91</text><text dx="-4" dy="20" x="604.545454545" y="680.0">13</text><text dx="-4" dy="20" x="636.363636364" y="680.0">17</text></g><circle cx="161.452414773" cy="20.0" r="3" /><circle cx="31.8181818182" cy="680.0" r="3" /><circle cx="291.086647727" cy="323.401519897" r="3" /><circle cx="94.9573863636" cy="598.022263755" r="3" /><circle cx="63.6363636364" cy="680.0" r="3" /><circle cx="126.278409091" cy="641.424872509" r="3" /><circle cx="95.4545454545" cy="680.0" r="3" /><circle cx="157.102272727" cy="654.848545021" r="3" /><circle cx="127.272727273" cy="680.0" r="3" /><circle cx="186.931818182" cy="660.995610773" r="3" /><circle cx="159.090909091" cy="680.0" r="3" /><circle cx="214.772727273" cy="673.462830574" r="3" /><circle cx="190.909090909" cy="680.0" r="3" /><circle cx="238.636363636" cy="677.178487227" r="3" /><circle cx="222.727272727" cy="680.0" r="3" /><circle cx="254.545454545" cy="680.0" r="3" /><circle cx="487.215909091" cy="420.023929947" r="3" /><circle cx="377.840909091" cy="679.985866641" r="3" /><circle cx="310.227272727" cy="679.992568245" r="3" /><circle cx="286.363636364" cy="680.0" r="3" /><circle cx="334.090909091" cy="679.994769563" r="3" /><circle cx="318.181818182" cy="680.0" r="3" /><circle cx="350.0" cy="680.0" r="3" /><circle cx="445.454545455" cy="679.99031134" r="3" /><circle cx="397.727272727" cy="679.996851737" r="3" /><circle cx="381.818181818" cy="680.0" r="3" /><circle cx="413.636363636" cy="680.0" r="3" /><circle cx="493.181818182" cy="679.996834635" r="3" /><circle cx="461.363636364" cy="679.999530195" r="3" /><circle cx="445.454545455" cy="680.0" r="3" /><circle cx="477.272727273" cy="680.0" r="3" /><circle cx="525.0" cy="679.997853138" r="3" /><circle cx="509.090909091" cy="680.0" r="3" /><circle cx="540.909090909" cy="680.0" r="3" /><circle cx="596.590909091" cy="500.210188287" r="3" /><circle cx="572.727272727" cy="680.0" r="3" /><circle cx="620.454545455" cy="640.049434719" r="3" /><circle cx="604.545454545" cy="680.0" r="3" /><circle cx="636.363636364" cy="680.0" r="3" /><rect fill="red" height="6" width="6" x="142.1875" y="667.424272511" /><rect fill="red" height="6" width="6" x="584.659090909" y="590.105094143" /><rect fill="red" height="6" width="6" x="193.022017045" y="460.711891826" /><rect fill="red" height="6" width="6" x="96.6352982955" y="350.0" /><rect fill="red" height="6" width="6" x="193.022017045" y="460.711891826" /><rect fill="red" height="6" width="6" x="96.6352982955" y="350.0" /><rect fill="red" height="6" width="6" x="608.522727273" y="570.129811503" /><rect fill="red" height="6" width="6" x="193.022017045" y="460.711891826" /><rect fill="red" height="6" width="6" x="79.296875" y="639.011131878" /><rect fill="red" height="6" width="6" x="96.6352982955" y="350.0" /><rect fill="red" height="6" width="6" x="193.022017045" y="460.711891826" /><rect fill="red" height="6" width="6" x="226.26953125" y="171.700759949" /><rect fill="red" height="6" width="6" x="96.6352982955" y="350.0" /><rect fill="red" height="6" width="6" x="608.522727273" y="570.129811503" /><rect fill="red" height="6" width="6" x="608.522727273" y="570.129811503" /><rect fill="red" height="6" width="6" x="96.6352982955" y="350.0" /><rect fill="red" height="6" width="6" x="96.6352982955" y="350.0" /><rect fill="red" height="6" width="6" x="96.6352982955" y="350.0" /><rect fill="red" height="6" width="6" x="541.903409091" y="460.117059117" /><rect fill="red" height="6" width="6" x="608.522727273" y="570.129811503" /><rect fill="red" height="6" width="6" x="79.296875" y="639.011131878" /><rect fill="red" height="6" width="6" x="142.1875" y="667.424272511" /><rect fill="red" height="6" width="6" x="96.6352982955" y="350.0" /><rect fill="red" height="6" width="6" x="584.659090909" y="590.105094143" /><rect fill="red" height="6" width="6" x="226.26953125" y="171.700759949" /><rect fill="red" height="6" width="6" x="96.6352982955" y="350.0" /><rect fill="red" height="6" width="6" x="193.022017045" y="460.711891826" /><rect fill="red" height="6" width="6" x="202.840909091" y="676.731415287" /><rect fill="red" height="6" width="6" x="226.26953125" y="171.700759949" /><rect fill="red" height="6" width="6" x="226.26953125" y="171.700759949" /><rect fill="red" height="6" width="6" x="193.022017045" y="460.711891826" /><rect fill="red" height="6" width="6" x="193.022017045" y="460.711891826" /><rect fill="red" height="6" width="6" x="584.659090909" y="590.105094143" /><rect fill="red" height="6" width="6" x="584.659090909" y="590.105094143" /><rect fill="red" height="6" width="6" x="608.522727273" y="570.129811503" /><rect fill="red" height="6" width="6" x="193.022017045" y="460.711891826" /><rect fill="red" height="6" width="6" x="96.6352982955" y="350.0" /><rect fill="red" height="6" width="6" x="193.022017045" y="460.711891826" /><rect fill="red" height="6" width="6" x="96.6352982955" y="350.0" /><rect fill="red" height="6" width="6" x="141.690340909" y="648.136708765" /><rect fill="red" height="6" width="6" x="628.409090909" y="660.024717359" /><rect fill="red" height="6" width="6" x="432.528409091" y="550.004898294" /><rect fill="red" height="6" width="6" x="142.1875" y="667.424272511" /><rect fill="red" height="6" width="6" x="96.6352982955" y="350.0" /><rect fill="red" height="6" width="6" x="584.659090909" y="590.105094143" /><rect fill="red" height="6" width="6" x="96.6352982955" y="350.0" /><rect fill="red" height="6" width="6" x="96.6352982955" y="350.0" /><rect fill="red" height="6" width="6" x="79.296875" y="639.011131878" /><rect fill="red" height="6" width="6" x="96.6352982955" y="350.0" /><rect fill="red" height="6" width="6" x="608.522727273" y="570.129811503" /><rect fill="red" height="6" width="6" x="96.6352982955" y="350.0" /><rect fill="red" height="6" width="6" x="541.903409091" y="460.117059117" /><rect fill="red" height="6" width="6" x="584.659090909" y="590.105094143" /><rect fill="red" height="6" width="6" x="432.528409091" y="550.004898294" /><rect fill="red" height="6" width="6" x="79.296875" y="639.011131878" /><rect fill="red" height="6" width="6" x="79.296875" y="639.011131878" /><rect fill="red" height="6" width="6" x="389.151278409" y="371.712724922" /><rect fill="red" height="6" width="6" x="226.26953125" y="171.700759949" /><rect fill="red" height="6" width="6" x="172.017045455" y="657.922077897" /><rect fill="red" height="6" width="6" x="96.6352982955" y="350.0" /><rect fill="red" height="6" width="6" x="584.659090909" y="590.105094143" /><rect fill="red" height="6" width="6" x="584.659090909" y="590.105094143" /><rect fill="red" height="6" width="6" x="79.296875" y="639.011131878" /><rect fill="red" height="6" width="6" x="96.6352982955" y="350.0" /><rect fill="red" height="6" width="6" x="96.6352982955" y="350.0" /><rect fill="red" height="6" width="6" x="79.296875" y="639.011131878" /><rect fill="red" height="6" width="6" x="584.659090909" y="590.105094143" /><rect fill="red" height="6" width="6" x="96.6352982955" y="350.0" /><rect fill="red" height="6" width="6" x="96.6352982955" y="350.0" /><rect fill="red" height="6" width="6" x="110.866477273" y="660.712436255" /><rect fill="red" height="6" width="6" x="96.6352982955" y="350.0" /><rect fill="red" height="6" width="6" x="96.6352982955" y="350.0" /><rect fill="red" height="6" width="6" x="193.022017045" y="460.711891826" /><rect fill="red" height="6" width="6" x="584.659090909" y="590.105094143" /><rect fill="red" height="6" width="6" x="96.6352982955" y="350.0" /><rect fill="red" height="6" width="6" x="612.5" y="660.024717359" /><rect fill="red" height="6" width="6" x="628.409090909" y="660.024717359" /><rect fill="red" height="6" width="6" x="608.522727273" y="570.129811503" /><rect fill="red" height="6" width="6" x="96.6352982955" y="350.0" /><rect fill="red" height="6" width="6" x="96.6352982955" y="350.0" /><rect fill="red" height="6" width="6" x="612.5" y="660.024717359" /><rect fill="red" height="6" width="6" x="612.5" y="660.024717359" /><rect fill="red" height="6" width="6" x="432.528409091" y="550.004898294" /><rect fill="red" height="6" width="6" x="608.522727273" y="570.129811503" /><rect fill="red" height="6" width="6" x="389.151278409" y="371.712724922" /><rect fill="red" height="6" width="6" x="432.528409091" y="550.004898294" /><rect fill="red" height="6" width="6" x="612.5" y="660.024717359" /><rect fill="red" height="6" width="6" x="584.659090909" y="590.105094143" /><rect fill="red" height="6" width="6" x="226.26953125" y="171.700759949" /><rect fill="red" height="6" width="6" x="432.528409091" y="550.004898294" /><rect fill="red" height="6" width="6" x="96.6352982955" y="350.0" /><rect fill="red" height="6" width="6" x="432.528409091" y="550.004898294" /><rect fill="red" height="6" width="6" x="79.296875" y="639.011131878" /><rect fill="red" height="6" width="6" x="432.528409091" y="550.004898294" /><rect fill="red" height="6" width="6" x="96.6352982955" y="350.0" /><rect fill="red" height="6" width="6" x="96.6352982955" y="350.0" /><rect fill="red" height="6" width="6" x="96.6352982955" y="350.0" /><rect fill="red" height="6" width="6" x="432.528409091" y="550.004898294" /><rect fill="red" height="6" width="6" x="432.528409091" y="550.004898294" /><rect fill="red" height="6" width="6" x="226.26953125" y="171.700759949" /><rect fill="red" height="6" width="6" x="541.903409091" y="460.117059117" /><rect fill="red" height="6" width="6" x="96.6352982955" y="350.0" /><rect fill="red" height="6" width="6" x="541.903409091" y="460.117059117" /><rect fill="red" height="6" width="6" x="193.022017045" y="460.711891826" /><rect fill="red" height="6" width="6" x="612.5" y="660.024717359" /><rect fill="red" height="6" width="6" x="608.522727273" y="570.129811503" /><rect fill="red" height="6" width="6" x="612.5" y="660.024717359" /><rect fill="red" height="6" width="6" x="96.6352982955" y="350.0" /><rect fill="red" height="6" width="6" x="110.866477273" y="660.712436255" /><rect fill="red" height="6" width="6" x="96.6352982955" y="350.0" /><rect fill="red" height="6" width="6" x="389.151278409" y="371.712724922" /><rect fill="red" height="6" width="6" x="612.5" y="660.024717359" /><rect fill="red" height="6" width="6" x="193.022017045" y="460.711891826" /><rect fill="red" height="6" width="6" x="96.6352982955" y="350.0" /><rect fill="red" height="6" width="6" x="193.022017045" y="460.711891826" /><rect fill="red" height="6" width="6" x="612.5" y="660.024717359" /><rect fill="red" height="6" width="6" x="584.659090909" y="590.105094143" /><rect fill="red" height="6" width="6" x="584.659090909" y="590.105094143" /><rect fill="red" height="6" width="6" x="96.6352982955" y="350.0" /><rect fill="red" height="6" width="6" x="432.528409091" y="550.004898294" /><rect fill="red" height="6" width="6" x="226.26953125" y="171.700759949" /><rect fill="red" height="6" width="6" x="193.022017045" y="460.711891826" /><rect fill="red" height="6" width="6" x="226.26953125" y="171.700759949" /><rect fill="red" height="6" width="6" x="193.022017045" y="460.711891826" /><rect fill="red" height="6" width="6" x="389.151278409" y="371.712724922" /><rect fill="red" height="6" width="6" x="193.022017045" y="460.711891826" /><rect fill="red" height="6" width="6" x="432.528409091" y="550.004898294" /><rect fill="red" height="6" width="6" x="541.903409091" y="460.117059117" /><rect fill="red" height="6" width="6" x="141.690340909" y="648.136708765" /><rect fill="red" height="6" width="6" x="608.522727273" y="570.129811503" /><rect fill="red" height="6" width="6" x="584.659090909" y="590.105094143" /><rect fill="red" height="6" width="6" x="226.26953125" y="171.700759949" /><rect fill="red" height="6" width="6" x="96.6352982955" y="350.0" /><rect fill="red" height="6" width="6" x="193.022017045" y="460.711891826" /><rect fill="red" height="6" width="6" x="608.522727273" y="570.129811503" /><rect fill="red" height="6" width="6" x="193.022017045" y="460.711891826" /><rect fill="red" height="6" width="6" x="193.022017045" y="460.711891826" /><rect fill="red" height="6" width="6" x="96.6352982955" y="350.0" /><rect fill="red" height="6" width="6" x="389.151278409" y="371.712724922" /><rect fill="red" height="6" width="6" x="193.022017045" y="460.711891826" /><rect fill="red" height="6" width="6" x="193.022017045" y="460.711891826" /><rect fill="red" height="6" width="6" x="226.26953125" y="171.700759949" /><rect fill="red" height="6" width="6" x="432.528409091" y="550.004898294" /><rect fill="red" height="6" width="6" x="432.528409091" y="550.004898294" /><rect fill="red" height="6" width="6" x="96.6352982955" y="350.0" /><rect fill="red" height="6" width="6" x="226.26953125" y="171.700759949" /><rect fill="red" height="6" width="6" x="226.26953125" y="171.700759949" /><rect fill="red" height="6" width="6" x="96.6352982955" y="350.0" /><rect fill="red" height="6" width="6" x="608.522727273" y="570.129811503" /><rect fill="red" height="6" width="6" x="96.6352982955" y="350.0" /><rect fill="red" height="6" width="6" x="628.409090909" y="660.024717359" /></svg>